<mxfile host="app.diagrams.net" modified="2023-04-29T22:20:10.528Z" agent="Mozilla/5.0 (Windows NT 10.0; Win64; x64) AppleWebKit/537.36 (KHTML, like Gecko) Chrome/112.0.0.0 Safari/537.36" etag="GMmzCa5cb84EJXOZ8ou-" version="21.2.2" type="github">
  <diagram name="Page-1" id="VSvSu4-WwB-R9e0od9jj">
    <mxGraphModel dx="1709" dy="1769" grid="1" gridSize="10" guides="1" tooltips="1" connect="1" arrows="1" fold="1" page="1" pageScale="1" pageWidth="1100" pageHeight="850" math="0" shadow="0">
      <root>
        <mxCell id="0" />
        <mxCell id="1" parent="0" />
        <mxCell id="aw8GpI5t2HlLWU1pFF8d-1" value="" style="sketch=0;points=[[0,0,0],[0.25,0,0],[0.5,0,0],[0.75,0,0],[1,0,0],[0,1,0],[0.25,1,0],[0.5,1,0],[0.75,1,0],[1,1,0],[0,0.25,0],[0,0.5,0],[0,0.75,0],[1,0.25,0],[1,0.5,0],[1,0.75,0]];outlineConnect=0;fontColor=#232F3E;gradientColor=#945DF2;gradientDirection=north;fillColor=#5A30B5;strokeColor=#ffffff;dashed=0;verticalLabelPosition=bottom;verticalAlign=top;align=center;html=1;fontSize=12;fontStyle=0;aspect=fixed;shape=mxgraph.aws4.resourceIcon;resIcon=mxgraph.aws4.route_53;" parent="1" vertex="1">
          <mxGeometry x="430.98" y="-460" width="70" height="70" as="geometry" />
        </mxCell>
        <mxCell id="c3c3Aq1LhFa4HHN2FVEI-62" style="edgeStyle=orthogonalEdgeStyle;rounded=0;orthogonalLoop=1;jettySize=auto;html=1;exitX=1;exitY=0.5;exitDx=0;exitDy=0;exitPerimeter=0;entryX=0;entryY=0.5;entryDx=0;entryDy=0;endArrow=blockThin;endFill=1;startArrow=blockThin;startFill=1;" parent="1" source="aw8GpI5t2HlLWU1pFF8d-2" target="aw8GpI5t2HlLWU1pFF8d-5" edge="1">
          <mxGeometry relative="1" as="geometry" />
        </mxCell>
        <mxCell id="aw8GpI5t2HlLWU1pFF8d-2" value="" style="sketch=0;points=[[0,0,0],[0.25,0,0],[0.5,0,0],[0.75,0,0],[1,0,0],[0,1,0],[0.25,1,0],[0.5,1,0],[0.75,1,0],[1,1,0],[0,0.25,0],[0,0.5,0],[0,0.75,0],[1,0.25,0],[1,0.5,0],[1,0.75,0]];outlineConnect=0;fontColor=#232F3E;gradientColor=#945DF2;gradientDirection=north;fillColor=#5A30B5;strokeColor=#ffffff;dashed=0;verticalLabelPosition=bottom;verticalAlign=top;align=center;html=1;fontSize=12;fontStyle=0;aspect=fixed;shape=mxgraph.aws4.resourceIcon;resIcon=mxgraph.aws4.cloudfront;" parent="1" vertex="1">
          <mxGeometry x="670" y="-315.99999999999994" width="70" height="70" as="geometry" />
        </mxCell>
        <mxCell id="aw8GpI5t2HlLWU1pFF8d-3" value="" style="sketch=0;points=[[0,0,0],[0.25,0,0],[0.5,0,0],[0.75,0,0],[1,0,0],[0,1,0],[0.25,1,0],[0.5,1,0],[0.75,1,0],[1,1,0],[0,0.25,0],[0,0.5,0],[0,0.75,0],[1,0.25,0],[1,0.5,0],[1,0.75,0]];outlineConnect=0;fontColor=#232F3E;gradientColor=#F54749;gradientDirection=north;fillColor=#C7131F;strokeColor=#ffffff;dashed=0;verticalLabelPosition=bottom;verticalAlign=top;align=center;html=1;fontSize=12;fontStyle=0;aspect=fixed;shape=mxgraph.aws4.resourceIcon;resIcon=mxgraph.aws4.certificate_manager_3;" parent="1" vertex="1">
          <mxGeometry x="670" y="-120" width="70" height="70" as="geometry" />
        </mxCell>
        <mxCell id="aw8GpI5t2HlLWU1pFF8d-5" value="" style="shape=image;verticalLabelPosition=bottom;labelBackgroundColor=default;verticalAlign=top;aspect=fixed;imageAspect=0;image=data:image/png,iVBORw0KGgoAAAANSUhEUgAAAIEAAACDCAYAAACqaHhbAAAAAXNSR0IArs4c6QAAAARnQU1BAACxjwv8YQUAAAAJcEhZcwAADsMAAA7DAcdvqGQAAFBzSURBVHhe7b35r23Zcd9XZz53eFO/Zvdjs8kmKYqkSJESqSmUEluOTTOiDdH5wTITSBkcxD/IgBEgBoI4QGIHiCPmL0gcx7FhQ0rsWBYMRI4MOKLtWJBFSCFFSjLFoTn1/KZ+w71nPvl+vrXWPvucd+9793U/toVIdW+dNdeqVVWr1lp777NPZy2IP4Df19At4R/A72P4AyP4A4jOrU/94XW/M4t1txeLziiW0YueFojeehnrzloY0V4vlNwCVXH9LOk4vVYjQhrWxWYWi4wIOhClPuGKCh3VW8si+85zG6HrUU7oPDIVx3QVp01n3W3Ry3bgakm6lVd5W5F2RnR6S+WuSn9Zv6Pxd9a9rENa/XU66tBpMPvLNvqAHlEn4YeybNMVnfUKupSqnfuCRmlQeArqAKK1Un9rEFolH35Momm38h9R11F/idRVW7ejt9pflneQcKevakqXdu5n8jM/tO7HPFY2gqHK+mI+or9aKi5B0yc0KzhjA9BHL1QiaARkYdNRGtJK9ADKXd1lyYRpOl/CF3MkEc42rYIoxEohnUZAnY7qkJX5aneaEdC78xTriCc1dB+iQ32pTkJE0dkOo1nyYWMVFOGZFg3pQxVR3MZgycMIoEU6+axMNmMuPGXfmbdSHsMFqhFYJkLXFazhR6IyaJwpU/4wXuQBLehoIite23rCSHYps5TtWjx3ln/1e9bdjmZppxfL7kAFfRHTEKy0tQ3hfiB5qd/CrACGLASIl4746IjxJCVBuw75DI484iCzUHkljRA27UucgcpY20p3n1t0oJtKzXQbyVNEYacrA4Ap50EDYSm0MWa+q+aH49kX9aFV6vhPYEOhb41R8uyKDnHaN0ZQ67lBKqcxgjImFzmS/WCYVi4ydZH0Ik9NCXmV96STPNLnSv25vselUOWUVSOgrmmu/7v363MueinctVyyjgy0EOaScD+g75WMgM4AD1ZNcnCQUZk66kIPoHNqu5zGzqWi4mnJLqxlrtdClowYECl5qrfE2pWoaQAjQHjKNw9K5Uwp9QDFrT7+i4BSYCgvDQ83VyiWPMannEqn0MqAvEqDeu268IOWiWe9KoeqNPK89NQe7c1KXbDKSo2Um2AZwSPthG7jEjVdNHSdJx66mugpF9JJv7P67z+oaHqCVVfLgQTActC1pbHuNN2dCnaFEDPzQiwDKEqEQuYgHNLUz7KcPWJKQacozoyXts4Xh2RZobgzYQ4uy1wXIMtx+pHCFZJOo4aDOniIUb3wSRKeLRSMIY2l0gLoz4Zd6pG7EfBGSm6DEUieVozrU0ALFboNSEAN8qknGsrzeEqVKgPToc+a78xKV//0ByXxnjOcTOhKr4pnHu1TdsmzUO08rsWnfnDdW89kAF0Z0dAbQ3nJ6K0wDNEB7wfqz7McZZq4iDYdkcd/R7RhIPOqi8TYkkEIlYFQBlnx4K4txKxjoUsyrHWmoySC8awDslhA/TSC5Cvz7FatBzK6aX8AVRCk+sGNV0+QjMCPIlYSGbnWuw1p90dAmSOm1SwH8K629L5csjmutOCIelV5SctLpfJJ0zYVn7x5CSSffqjGh0UB9TJe2sOTwrX0qoj5oRH9wFfKk3o5NulBDDCzFK4UrmAWryBcexAlrEi6hbZiCwVFQJxOSBOy26cObaEtunLnKzOhPG1CoyDLEF7IdShzWlj6dJ7LRVvGZO8DGfNdQmV4PCB1LAvKSz7jLGO1IAtkvUTkV2SYdE17Ewea/ILZf+JWG31aaUovFTb1ap0dpHxhXDtcaqhLxcnHSTotdFxjwvNnnny50guNH2TC0Y5yt21hpZdtVUccyRP8gDwBpwOENRQRLF2rp6w293sIHNYT7K62QGW2WkIlJUEfq2zdFPMhxmgn5iDltbX8MXrnGRkhNMlPWuS7e9pThw9NiewPVBvVh2fnVQ1qHGCdPekKCw1mOdWo7xCEj5xReSRTT4zFvBRlCu11oFXab/Z65oyq9mbQgFpqlxLJt2y2kx7jUg3J3acI8sxrMV7XSdlAx3IvYyFKrsde2iRfNKQeFeB8qvykk/1BJ2mRR90cw898SFG5Dc8SloOBMjX/YNidPQDoU38mpr8UHEIqRoDC6ZDxYxwKct0k6cZCFKbKDKS0q4qvBmNB+l9xuzQlnEcb6itfee6TFmwyqUsV80S7FFoqhSISpU0RnN2qFFj7SxrUESrPS4FquYyGrkP1EiHLRpAySLoChbmjJ57t4InlwPRKHjXgKj9SeSxj7ZMSgdtQzthcRp+bMOnPqGF+nCYfWuKNvMoyORkTZMytC7qHgqaSCBDAuI1bVo/Q5ZscSqkd+ZtO9V3qMM+nIkocpAMzS0fQyAE0A1WX1bASMuQz2VAJSFp1zUvDLoLKv1yrS0qGvebEI1ypg+wKoxMiVNGzLijnT3VcD2OlJ4W5zNASqoUyTKutTzeMF0PxWExM/dJX0knE6yYuVI+lYqGqC4WqqvqFJ1tEys/0TY6QPLGjcmTpuMoUk5Ey6VgYGWfWR4rQ9JJq2vAG87TwdBVBKgnzQkWmPWvEsHkAXV8fri/0QBM7SwaPIej4QUh6qaOmwlqWewTqK2S21RlX0y16qRRBYXITljoGapB/L1Cd6xuWnf68Piqsim3ijJcxGnOM1M84oVIgyqGu0AJVH5K7w0zDr9Dtstz8C+oFt6QLDdZrDCDpwQtLZXqApMW4Kl19lHgN1QmgNmnAitbOdsD80EaRzRiz38SkWSV6CqgVlEDAYYkbdtOnQ1peiRBupLjBk6D22e5bdevAPdsM7XKGddLQap1E6cd7CR+JxQ9IHrOrC0LagkaQ2c+mP0B0zFdpp3jSTKzeqsZ7mk2aMubMeQ4pV1mp26azDYVnPluTIXvfKk2eWnV2gXq1LsM5udZ9oXTU4NnAshNzGWa6yjPDXVrtdLuvQsMhkfu1A7bbtuOs71UJLinC31YiniBb2BU7UulsaNUNF8azUeYG3UeN28Com/lZVss3tElvwmyb5QmO0Y44+aaxXZ6lCbVO5T/T4iGL7wc0oFpFIIk8LORYNkoENoLlo9KtWPtspwlpl8rZGMJO3WYmEC95hixDAM5RcwsX5VFa29U6pW31Bsl7Bcpqn7QlRhunhNCgHHpJp3oY6GKEqdiSlqfIPjOP+hkmHdUoeYlWOjnEyaeqy0v9WqekKavcVvqUk3c6FOKJpaoJE+q/QYSzwdOhTQ86lWayxu57ZdRqUbAKPrHSrzQEapv3CYjrX0Ju19UWwOnkm3qlnYC+1kv1Vy47sxGjPh07TduGB5C41lLlJcKr9hbUVZmbKpIh9RRXekldt9+ms421H8JENVKoMu0a1wv1Y4Rfreiq4Cuh7kxjYtwOk47bljLTon5Nl/reRCuraOE0oEpFoIRirAlr/IFAvRaWgWeoiOlslyfs5Atru02bdrpCq8xQ2hkU19C90WIjt4WQyTiySpL30tpFbzZFP29O50YP+t6AqQryp3vrgbjyjCqvIZs2aDUzvYkr2oo77UZK689AHKW6vOanN9hgVnUdl2f+A4wAyMrutAkFNX0mqHWFtKs0BKkYCaJqqCnfDQtQTWnbTcGGdoPtYWWe67l+bauZoqLcNRdUvVSg6hQknaCQBuZlJy6gva/Qqeu8Ukcauq0+VBfjcL548EXkkl8NLwEVpYL4c7rEM83SUOLkmxf9e4wZF9Fcdmo9A3VpW40jc89gBBUqoUcDqYgal0JK3jbs9olisn5Clm83a7fZDB7YJW+DIBR6hqoaiue/iRvaYY1vwMYjIiiY834e9yqNQl9xvIUNizrFEDCYNIRStzEEeqrxTd42tMrvFd4OoOoNxQ0ob/WpD+soPFfnXJcfCrnxsc4rhjDtVnSC9TgLTrNTce5ztJNKsz5jYaLAjtflyocEdwi9Xhc2fPVMTbi966eAlirv079mi9ohMAhzN84hSYV+oMKbBdIm1fSHiDMvZ5f5lqSd5/p8ZLw9y5ytjzqjyN20qdczoJMtDKVuzWf9d7bzCy2n9SF2M844sty8SOFcNe1xnWS+jJ5EMpCMBqrTo02LpmPKy70AdLilLlABIjFnxKFb+uP40cgNK1SdesUz9zrkiN7yf/jedZeNEDdsOmkEPdXoLuaqsfBY3UXdVKnhBjUYBbg6K7iTiubijxllEEKT0BTpqA8eY+v0ezFdTvxowGIlI1jtqdpB3IlBrEf7MTzYj/7efnQHI9OE6brbzaHQ6wa4IreBrGEbbkGym+3Mj6AnXqtLzFxt4rDAFvCQjW+EOZHBibBI3irYKNxf5hJDAvSHmya90CI+XSziQMYfd6Yxv/ZqzJ59Lh7XhBlxUpBhdLpd31BiniDPnjax8O2LcSgTWsLmvggKd78Yy1x10ki9eVb9vDhHHUUZv5h5gBGQn+Ch2BBonR1icUS5CpYdEzJQEKUpr1qzKKy4eihvM1PWsWgfD7txpzeM7mNviQvv/EA8/t4PR//C45oO8GHy0ZdR+IqiB0G/yt1S+klgblvhKWDX+4A6a63cuxa1C5BoPV2VcC9dJGGjS5FInPJ6PclsJmVN5AmOFvHiX/u5OPiVL8Q+RjCTEYhHxMZdxbYRdGQEyAW5I2bqWQUoPCMytuLNVd9Zr88IUrEGrNChUJTqNXCUbQtXHjXsdlTHTCpnrszZvB+94YW4tejG0WgYg3c8Exfe993Re9u7Y3j+SnQGF1RXPOBRoAvTPW4z55U2g/oosQbMIx+1IJm+L2hEMRR/8HwPwRZIOJqFksV9gOZ5kSjTwEksrKVw6rCLpxEincvAWIC7mhmdo1k8/7/8XOz9n/80DjT1uzKCrgyFJ7cwAuSdRiA63JdpGYFBYdsTsMCnUWR+dkq7mqeYGCLndKgNjUAJnQ+UMhNOUj1RzodMYIDRJkM+Nw/341Z/HHcvPBnnf+hH4+mP/qk4/MCPRFx4R0zGT2raH0S/JyPUoHtibgBKSIPVIvqrefSXc62X3OfcRu59DjslrPEH4EBLXaermcLiW68Zn4C43N56dF/sCrV2SQzDBklHr4Xk8+wEayDoJQaXrhEQp85wLIUzIslLyB96tOGodg1PgpxsGWaaj6oXED2d3Do1V4CGaVmFAcPGamp5NQ5H7RlyYwaTyrEBLKW8+WKpAXLDZKAlYBS3VlLRlbfHUx/9sXj8j/xYrK58R0z7lzX+y7G3OpT3gcBcBrCMvpAnnvpdGUBXeVJYTzunbnem3qYbXBOSJ+wUdLqUVSRdy41z8TXVDJvISyUSX4p+G1eqhxu+HyKImcY90xRvUOmp8huUNqca3VQSlyNkH5x15IpWA3lKXJJsZ0WaJcCyRHEKbI+Sr3Az00+HjSGoLm2MZrMg5eJd5FlGtowAsAEUIglpPU3jxpoIE3MPkKgRlHzNoP1DDW6gge7F3cFjcvvvjSt/5E/G3vu+PyZ7l+Ood16bxHMxWo6ir31itzOW8e6riz1jp7cvDzIQMr/7Olf3FWqm8NxDRc0wjMxYfYPTpawi6VouXAm7ot2VYfYUgqS5Fc56W5HxrvrL+6OMsyfueqLcoA1ZHBck3ZWBd7XH4PkfwqzDoqdFGM+jdmsZgdSD3lOO1RNUlThMGW/raRdQfO7RUndFfyfAPUawDVWhIHBvnPXNCH2MQHm4vaXc20Tr2qy3F8f9w5g+8Uw8/pGPRu/J74jl8DHNDik65Eq19qtFkvM+QhvFFcqRQpZSzkJKIizYJVTZ68Xuqm9aVvZCYRtbRkC9eon2NGQJ7Mkj9OQBt7Hma8eltBy+lrNM40H6woGmfJ89mDe8qS32wFVd1QAaIwCs2MwgfJAxbGMbst0DjKANbQI0a6VhoqCG5+1Af6gjn/ZTCxnBTfm5Kz/60Rg88+5YDy7GbDaQ+kcSCjtVWf9gFjGeexZg+d5KcDmNzS0GJvQSrWKwMbzXiQt23Zrs0vs2klcQhfhRsfuganiXfz9cCLWoaSkQUW12wZVwrvyZJgLhqi9UyFbNx+26pivktNWc8fVZlf9gAyg0GrwXTs5tA7O7zHDP1C0ohmBmSj0hu/v5QlsbueC7crHn3/3+GHzHe2J5cEnCGMW4KxOQ3kfmfx0Trb13elMtD7OY9ecx7y/kEGQUQ63LwoWMZD6YqOy4IPHEeV/n6wZJJ876Rwo3SLqN5K27x5LAsfjcxo7yKi60H5nprH4/nMvzcfHmQZhnnCJL1mLJyrez+WsMCgNAKveHdvnphiB9WWf0WeFelWeO/Y2mRkOavekqvROzEfTjr1QVo6z7XByRu+c5naW2OB12O4s9xeXORWt954aU3Ys7B4/F5T/8cWn8iehqWejL+jt9+QshGyC+SDKI/RhreRiI4fVcm7a5yuWKV5qWS7nuhfvsxkDeoc8sFncgLrQDgzo1dMCV+FiCrL1lWAVJ60BV0Fc2RIP+JXwhinDMisn6+ajWQpu06Q5qU2mkTAZrISWoWYO++lkwr2DiKSUtyWcqPFbuVLzGQnsELQvaIuRSoeM53wXlhERLHotbLuUxtdEOTS6R0L88jDpJVB/kST6EXNYA/ShdcakcBTeokVdU+zQCmx5rOawDiCcrJDCAAtTFCFyWA2O4mS83J4Ut56sYDocx0W7/8nu+O+Lym6XDseppJnBRpemZXhB+T+tiL+Ya0VRCEP+27vlCCkUyEhj24tr0oY1krMCxBCdcaRMJLvdUnvHueizM41siX10bCQkT5WYSZWhrpdeiSx3Tdd2xjqXDGMrAE3vCfgznCo3KEw6kx6547S6m2sMIZcg9KRbsg3NtAIUDKbwvTfVlOCBb1dFSBjmV0U5E5PZRdGcyiLKf4FlBQ9EDJpG6KmlPIpaKko+EarzUaUVOhc7yUx/SUozFlJ23ZqOtkC+feHepWQidwk+9fEseilrqCKdI9Gd7qjOS65ZvWOu4JeZu7r0lLv/p/zQG7/k+LQPnPNO9CQZkBNxEgbRXVeXf1ZGQS8B7mPNsYo/S6bO8IBD165OHlGZsAS4LIKAKEaayMwrU/AoeAz3vQKVVwa625kGEdiZWQHEbqpaWDQOCnF9N2mSop4iz+BAypqlkqBPNWobwrf/pb8feL//LONQZciRPC2m8CI4Y0XFpA1mkF1Uf8EtB5cnx5BfvtgvM/jaYneWnPmwjQBW48hVHJI47+BZ15s0JNKvyxDTrWF2HWAwg21toBmndW/bkgNTkjjZ+r155b7zjE/9RzN+iDWFvLCNAN4UJBQsR5k/7cSV01JppHdaMmnzzG3HnuWclBJ2uhd4kcYEF3tQeg6nAIHCXW9avzOJPMm2gX9Klf4V5PT3T0AHW3DtQvNby8BtZ0ofaMXaTopaQJprZnBQSaJT7JNPZEEgSfNCWdnLvKHUtQ5jeeDXu/upvxFPX7vqycZ8bBqrDZPG1BfgS+t6BaaYeLI86fnggLdhVOHCiEax+hruItMIIOJPLOUuoXa15dLSiM4gXwhhB2xMk4KaTKVbbI5XfGl+M+Xd9JN76sU/G9NwVbYbl8qnh2YwlS+94oNWcg2LEfB6rF5+Lq5/51bjxhc9G7+bL2idMxODcO2rucOK2+aJMf82sS7aY8Nz0ScNI3sxuw1sCSeeYd2LigWNMybdxUa4sj8/aQsAaUbmpVJW6ZPaVfrKejJPlg3K3pX8+iJGXITImWm8XQ40nhbwfUMjdw5EajecLjb14TeXNuWwsEUHTpyTrIOVNJmNnSKbquDs8uxEs/+rGEyDopQZE2suByLLp4C8HJNg1AjND2zwbs4Qc98fxwvBiPPOJ/zD67/lITPcuay8g76J2XR4/h64IzNlczSdx2O/H+tWb8fL//Yvx8r/45XhK1jK8fT32tTNfyzPwtTgMlD1HH9460zLYHAT04MlKMp8oKJcxswi/CIx80qrjUSlBicdBHu2pZ8NnjGkEYKVFmN8czlmYApdyueYg2ZGuM5M/a44q7ilfEGEytDO/8IFclFa7pbTM3kwHJJXh0XS81JI4K8qjXo9lwnIUwJqaWg6gIA1E4CXx/oBRZG0PmEE5O4mRVyAHehrQTkpyM+3QpVhc6m1ug5674Jsmaf/bAHlm4rgv5WrDdHzzlXj+i78ej40msTp6WfzrGDe/raVSblZHxF5vEv2uNk5c82dT540e4WZj2NVGLhSCneV+g92t+IGx45D0noSadbrLw4IqX1B+KB2ei2n3nI6x4KHwfBwrPO4cCEu6sxcTnXaOxetksFS4dDjVUWaqPdJU8VmftFx+T6EW9nlvJSTMsklBZnx6EwRa1GMDIl/mhgGU8lR2SRfdVQPIOg8G7LW7qSwqxHEvJoqVE6QCCU82hjQCPMHKuxihjGCGC93XPkFGwG43j1s5EKiIXXWuI1lPM2M+jaNbN6I/vRNdHS17Whq4krjWiWLR3RNyZ1H1RB+BLLki2Rlqs8T+ulwS9qt2xgXlVFU/v1+po5TQaZmj/IjS8CtUyEzLA2OGLH/5xVgtQQo78j5DHVV9KhCOfDooWE8KnBw0o4dS0FDDH2kWj4UjuXni4FDufqSj70h7gDGoE1RNGyWvYZET0jFaNTk58S65FOAJlKaaAF1l7bJhd97DGUIxNdwkiIYIydsofTfcAp8gEDAg7lhacKHaA+Tax5rHqXYbqF/fM4B3ZfDnlHlpPYiLg0OdNiT4NbNSM3U+1sZTS4GOY31tIHvahIEcs3zNXksX1+JZxryU6ZTR7Ryp7K6WjrtSJ6HSwj4YGae8S5nx2HW765ongyzxkAfqgB1ucByJce1J1B5cO1Q+srHcUEr5U7yu4bmOSxZSIoird4gcWmJFZMitZqnZRu6iZaUrua3emso+HxYke1GsnYgInTIQFeWAYF7odVQKV8p/rm2GNBiEbwbl2rV2c++gz+VR04VjwmIGmLRHoXaaqWyyvInTBtB3Ijku3ZWCVF3nBW36OlK+ZttEm8IZJwTR8E5cS4/c6krhSksEXmKl9FrTZCFXyyXhVIJ41f9UxrLkRo7WyZ6WrXVf7Xrak2jfsdJ+ZdXV8bQzk+eaiq5OKVIuYWgZWvdUprrrvkK59HVP9R1mfzz0wfMSslGt3VwBTZQdx0TO8K7q3tXScCT2J/J8udGTRxMyHL4i7uct1J5b7rmvSQNAfCzt9Y43aZuO6tlSJLs0EpD9RCJpP/pXSipadTsoT83sdXHmiLhdr5Rmpcu1gM0XIxTCXVOmjrvMRK9VvO5Go5aLdhtNcWb5qsexs2/3r4oSsPo0S9ovdAcyBnkNjfRYal8OlZbwOhL8YjCXcLgaqLo8g4iLVpvlVAPltrN46PU41kqAcqlcqp7JU0xFfsryMFGbuxK6pDsb7sW8ryVkxrP7+UXQGVcjta+Y+6pk34+6LUVzqfHV7w3I3vw2H9lN0bLGJI11ZJCJGOcgBqIxYOkQHS58MWnm2hch0/6AZwkUE908Iqs98hUi+tQh40nvAKLYfI+D0iLT13i5gES+UXHqZ1ry4A+lGzVGWQxGZBJbKN22UV1rVCoBCjN2JyW+C7Wsouts1YNWxQK0eSiAIP1gOMSwe+WJYW7CrHojGY4Olf19CaIXsyOusEnw8kAcQrudgVy+1nQMBeOhjTS5XM5ipr0H2uFxLtmY2nFtQxtJkA2lwpXy1tpgrpYyIuI8MKKNnzY4Qq56Kt7RJrOjuJCQg13e5eTOZN/hWPkjTYruRKrmcUqFYxnQSDiQEdq7SjaMDrly9mc/gcJTsepKQDxhR66PEDqLv/Ihb4N4rGshd84mj+sGea2AKrlug/YEZdNh5VKumQOfM7nUgRTV0Wy5q13zl/cuxAf//H8e3SfeJYvUblvTm4MhTh4vI+dvGqzr3emrce13fj2u/b2/FW+9eT32tGmC/BTvryZ7M2aWVvJ+N6ZD7QJmSEptdbTkcrp5NJ+whGC5ACW13Zlq0yVvIl+62tMsV7veTL6qN46Jlqxb2nDOZDgWLePTzOrjvUSHZS4VwDiLwoQ5fvqjSZZRv097M7DBAfdJ9LeY6XQjz7B/JPrwW9w04H2BEvQN5gbWHIkEZRlvT054YLxAoxu124X2W+Uq7NaDj87yr3CdQIQkFFwjO2I5RF/jZgDVCLwEFIasIVqTj+tTkEaAq8QIDtIIfvovRvdJjOBQRsDMfoAR/B9/M952/YZ2zhK4uuCI1ZEVDOV2udJ+fTSKaxfPx/Cpt6pbnRBUBt0VN1fUQKJwCEMjWcfe8y9HT3hBRs2Vx7mM5ljGON+XUT7+RNy+dEl5mIuaWBmSAyEZCqtw62PvDFkaQpJKbyaDv7KmvQkVUCT996ij5Wm5kBzn2ovw0Oi3rsb4eCEjX8eBlpk9NWH2M+n8NTX9mbxJ0JtowI/63xgBfMLLIzSC1X/7fdpToRjuHehoxS1PCZeXWVoaDJaacAew0DgUkg9DCmdSmB+k0NHpTu8wvjS+EN/7F/6LiMtv1zS54M4faAR/93+Np69flxHwaLpkyFloMdM6O4wj4Yvjg3jqT38yxh/4QHQGuHJ1zA6yKgZQSLYW/lh+4V/Fsz/79+PJq6/Km8zi9ngQr1w6jKf/xMdj/13fGZ0n3iTeUpgeiz8KHacBIqWOeSZUnaY8YY0fV2bZkwn14bhCGeT8eBLH33ghbv3OV+KFX/lsPHZtEuduzeKClgY5vJhwyXzEwy5cKErFpsKZhEzApAs5x9lsteCsRnAPqF3vv/nRt/xluyKxgiFwrwBLa86rVnohpvxNKCQsCmCHiwDYQM60Zl/X2n3lI/+mzP2iylk7MYIyEsXS5bE1UkyzdHL1+Tj+rd+I8xIWa6otXTQH7Nyn87irDeDiybfE4x/7cc3ip7U8HwrP6RBeQqfBg1iO9+N4b19FhxL88zF66WaMJouYHhxE74Pvi8sf/1gcP/FE9M7LOFUvxlrn94Rq53hNg/vKMxLXPqBBpQ8UCtcHo1jsD2Op/DXpUt45pI7w3H70Lp2L3lOXY//db48rH/zuONIJ6Ojmq7HQ5pHL3ku+iyFZsGz0kWsRlZcfh0XexFWEzNtwkhHs1jkRVCcXN5N1xJ02TVEwgEFQ3NRtg9Iuq/ntEMRia979wS1Mh0uictOKr7klq2R3PJagpeSBhNrhLqLKtSOvt6+NtHOo5YMLSMNRzEfaSyy0M1P2raWOfI+fj6WUAy2eReRLHNyYMpa2fhIYdJz9iMS0g+atIG7LF5iEXHY3annlFcEr7nv0BupmGDd4AOXy+ei948l45s99Mt76534ivvn0YTwvG7vNPkETLp8eAiyNFn77II0AJXvGJwPusiq9QeXaGApTDgHCXcaL4ps6ZwOYoQUneRDh4hJns0lMtMGbYQ06QlbycjuJuCAfO7XUKOS6xYGOgn0J3XoeLLRciYa26f1L+zqCapfOkYsmgMcGQcLMAtL2lceM2sJSHfCuDh+qXb949hlFa3jeaU1MhrtxTgbMkXguIzw+14nBj7w/3v/TPxm3njiIxR6P3IkKR9975Ea6hQ8p1wdBMYIk6rVmCzLDn0ikwkYCyRcx8greSydpJJ3SoKFRwG3TDJacc4VelrSsdLQJZI5yS9XylM/kIg0Xh3ieYemQ6+4KMQYZwUBGoDOhlpKj6PS1pIy06VI7tgAdeZeRTiC+hoEjEOIQfNFHeRW5ju+4uvWDVSVsp9nM8cl/ng70L4R/bgYttKRRjzmmA6OMRNtubWbj/PmYHQ5j/wPvjPd/8k/FjWE3JlzwsFyQYdeGpO6riL9t0PX3BrQm5Q6XEYgRmNFaQFpDKZjp/EIorqupJsi2do08UC93udDO2I9dIQQpKnWuD/2XcfriURoPS5COp3PO6TyUeVdkj7SjlkeY68wu174nemMeNuHCEgJnx8yM0+zpye3mHEzkWoEf5mSGMgYpnONvdylaR1KADEubDSumXgfSZt1IXhvZxsqE/Je+Bsw9jZ8R5MyPpUggvu3M5lhteOyNFtl6rthUhoZRaJERbwPJadyXBzg8iPN//Efiwr/7R+Obh4M4lqfjtgtXOvuq3IM+8i5/7PVA77FaeBpIVCeiGmkSiBno+bMAsW1yDKYoyqCwFc/8iiLVxMEKsF463iovdbIg6WottTdgNkuB0Oe6BVe2uGbhmeZmbRobrH8McDmQojS7vKHg6IqxcPHGl7aVJ375StdQxnU/HHMTSApBaUNZCUc6Ho6BAr3Cp7+qpq5W3AxTJlPHL6mkhvlWO64kig5ffeNmkpyTrI+rgGo46Mfbvv9D0b18MY5VmbeTem61QCRKh2cD1z8DUA/NCaBeeqiKbSnYf1JOxhMYmFMedeaiKA+a8vJZY2eBpElY+wPalM4GzOA5D7KiFCGG1ZWW/B0+hM6wNZ2WWh4ehAyNq3mcAPP0o5ks5Ic+fHnW9w7SaOkXY0glwq28lTec8krE6VdlvlwLG+LtaK29jox1+OTj8abv/5643c/vbdblBposkRW3J+WjAbhSUIluh4i/3anDitSpoesxqk2+FYpRGMg/C2Tbpr5omga0TZOQggfT89Kmyt47auZ5w6XZ52VPf3bx8hD1VnMbaz6Yj7apXbKQIJo+VmsJgI6vsqiSOLTiUCLXQaw0eQTO685TOFV4LAuayJ3c6S/jrpalGzK2o3P9ePwPfV9c1cGHr6TNNXDogjYEYZWpoo8U0FwBSFcs4NHrvwn5IK46RsUljMzTh4RDHEZTCVAr9c4ASR/hKoGgiStqJhsaLf5OAdrzzZ6e3C1ut6+wo30BN2C62hQupsd+ognF9aVdHoCt2JenwGNUhCfW8YkUdyyLmmFVsKC2yV9i3ipuRGBx4Blzf5B7iXxdsOqyf1Cay+w8UMPDtZ3z+zF48rF48l3vkGjlSUobaGWHu/ja4KQ9BKaunhLZ7MF8hkoT14dRXKWS1IqRNmmhN5ZZF5dJue/yaVrYk5B3FmDkEmb2TZ/Kq7xJqT5D0/8DAKGj/A5GIB5w5z3x2JlO49bXvxZxkwdYJtHhvQBa9zuUFfQDMC1cHE9iueRG9MpfJp0IMYoqBxTtO4MYgXvncKu1X8wP5jquHi9iMF3GeLaM/kSnlvk89paLGM9nfpbwicEozqvhSDT6B4faMPC0FLRkhPJCdfwb5VfchvYm8SRFV9gtJ0hf57lWlc4wVKKwLgVG1UklFOLOz5C2gJcLxytSH9rFrT8Q6Ac6YPab7QkpeRgo/ecovaO+oE3iy5/7zXjh0/884tlvxPqlqxGvXIt4uaLSIPkFR9duxvD6regd3Y2FjMF7fjMo8vIU+VU0dWCD9UjlTTTjbx/F+sXrEc/diHj+enReuB7ra6/GWrTWNwhvKn1T/d+M/rU7Eddvx/r2cQwGY+0/ZEhSBNcequOhS0QIPmroLP/SR7S55QhXvq2rAXHvIB8Uoed0idz6NDsesLByJOUQcJ2fGd+fD+Oofxhf6I/j+/7ifxm9K+/UzNnXWR8zwrwkRimGbxWJir+g0Zndihu//bm4/rf+Tjx182UR4VtE/RhPdKSTz1527mgjPY5Xvut745m/8J/F+vzFXGuxWME9Vm+G9DG5Fs//jb8Z/U//aly8NY3+YD9e0hr8woVBdI7m8dhjb44Or4op4OEw5hbc0s796Mrl+OBP/Hj03v5UHMma9nXE5HUyNOARe0TDu4a4zoDHGBxN49l//P/E8//on8Wlo0WMYE+8jicqlzanalMfPZvKE03kDTi5XJjp6ChjHB4d+YUVezr62iP2dWxWdxgCG1L2ImsiLdiVAaWeQ5lsgFNLG3j+ANKKFverFkYrm0hSoXODw6y/jQBCURwjOal3w4mZO5D06melboDuGYBqc+2yFzomLmV8KIoXX7AmX5zM4um783jn0TLOf+O5OPja1zb47NfiUMvF4de/vsGvPRfDZ1+M7ss3rdxzvaHdvUEBBs1FLLyDVndJQcYuxXav343h116Mgy89Hxd+57k491vfjIOvvBTjZ1+OvWdfiv2vvhSHX30lLn39Rpz/6ssqU92vXY3hjSO3R8cozPsOxY3Zq4DYJvV6gemUrgy3Yx2JOKGzZRguYqOSx560DfIxGj5pyIWkspddy6sotGEaNYiG30IYpC39upLYYI/RoR0eqHghlfH4GVfYmEH0QbuzgPb2VnpPG8K+zm3zoihm3+EdKVNlB6pzQAhK8IfaExzKgxxqL3E4W/vS80Wt6efYj3BTaMxTzWmYPAnFuLnRhi/EBOzpsEDN7HPyrG+adOIxHREvLnrx2GKgPjtxQf0/piPCOR0X9hTfF15UXxdmixjOj7RRXcgAxLdmv6+c+oKE+hH66gGyVt92RBpTRbxRG2GjeUu74vUq0+bpo4KWFZ/WrEKB8ovV5Z+LhSbcCvmwxzAowQWerGHki49ZTAiSTzmYkDEqtYjKgPKLpuSl4flZPAZLlTNAUsxdOLdludDDI27Q6MrFjqErxXPJs37xg0fYCDkRcFEnN5Nc3FGvGPhQ7XtapbVZExkpIRWCcwU7jtu1KkObOnnEIe8cYiyi0ZGy2XgOZJQjKb3H4wfqEx68NPBsxJpH65OOGopf9SuXgNIZT8o000ARUSLpU7AIxHhPmcD91cnVvkCTeC+4xPV3y9tt2vHXAIyqgTbNhwHVt3QaNRUEcNr3Qs7xRwR4Ok8uhAWe3OPJ+W8s+LEBKxUUeFfuUB8tZVTFN7v2OgALGmwLGnwt0Gpb6RpeK702VNobWlvjKLgZpz5Vzt9rAYsPQ6ihsfbThppWuDXmNw785ZM01lRuYlVoEYTSeUTcMNgIyXXzWvxm1r0WgPYuQrPEG9qkzwKVRkVgNy/H60fdjcpyXoab+OsAC7cN0K1jAQHy/vWBFkutNax7Wpt4Vo+XITQvRDD/GEAKw4LyjqQOoAhTeX5DFgoT8ir2uuZ642jcBo407FUqcHeSNjljyHCm8rQxhCetmarifLvZAvccDwvAs+8Vq9zLutpWuoSOe4NTJoEqOd+8EyoP5LIx67rWed4paB4q0LfwZA7uBdoyng0yXniBAfYaOndA7wGojyR4AlDum1ctdJtTwPUzqopWrDrxjADJ26QpawCehc6vWL0B9Qqthwfa7LYjLXqviWZtq5D2Db9ZRmkad0k7xOOl4ecYyXtUQI/tcdSQPKCm31jQcoBwsvtUdgucTrQwSJfZ0wjTQqIOA2kPsA1nl2TOjMRN/xVOon02MLlCuF4S3x5fDRUQU9qG8O0A+qp9Oyx57q8axBsHpcfCiADnsEm1IZlMQSpahJXMpyFl3kmta+X7g0kXt51KKu2qoAwnc/dAaPhW+0J2F1Ltu329xv7ODLWPb3c/p0OeOFkzJBys38dfhZxMzRhx5OdQs0i5fLLW++3iFGp9Ywb5oQ/iGBIVAYfpIWpWUnBHJV0FkH1ybUDdZY6qcJbPp5+FCl20IXYPuKbLVVP8JE+KQ7Tk+4kqp5Whf8XMv9up/sZrkOFSI58JWe6wQPZR4tD2PokJwjMFlGU5NLzgKE08Mwvu7J/I2cJsYCBtAjtY654Ebk+dFvKsBOr0eEjwtA3XdWDF8iubl+Y3fOqf47mR8xu1hNyR446iL6uKuu83qBgD4o+q2ZZ2XF1MGuZKm0uWJi63+Fs4QlW3XNbTWXBDRTtOiJmWQyoUIAqabyE/NMmmh80u9xH8YAgjVj952xfFQByEn4rwVVD9uX2VlqoyXwDzzu4R16UCuDVfLsTINA4eLshHjrTRVKmqMsmYeUwLrcXGfKOYCoRQ2BoX3QoRpZE84UlXA8Gsn2W7UOvyfAMP24DQFC9KZJ0C1MyOrGC1ZJzQtDLvpf3IANopSGYPIf3VsGzWzggnsXn/1tlvjo/wYXo7DZL3Dbx+io8KGGaVEQZZgspgm3GFKEaIPWwLiDql+SMDlF2ihQdz0+Q9ajD1/Gv64HSQudty+f8vaJSnDVJFCEYKTw+QYRWQDYF4I7zXD6ZnfgpPhbbVof7ymPhoweOBtsaLt8lNUjH0Rzi238tQ9ltF8BZyYgqhhpSlUDAElJPtwEzkGrmJey+hP95G4vcSnACs2fyVRNOOd7Wx3LJg+YmiTi/zoV/r3wdcq9DzhRL91z0NNAgdZ9PTGps3tnBE4H42PGVbNzf9BwH1oVD7Mh9nAWSyg/eAsu5bXqBd537Y8gSE7XiFTVxNMlKlQHjC7KwDN7ijjD4IaMIGit2Pr2KSIUPACLwvoX+UdgbY7bPhqYTJH/QorEijnYbqn6t7WeHsUMeffTr6SKEq8KFA1dvKr7jRYJ3hzD4LicwUiv+KgDxL6szR36OD7GNDUayVdM7SLH+UkNToo9ImLHmlz98PkEbAYDXoYrwKSQvLqWBXQAmlTmnzyEA0U+HuURl81j4fNdS+Sj9lfJtxfrv6/b0FOjHmXx1wdV/yBU5vg+pUAVlwJV7aJrTqnAin5SdUXrIWhEBopmd4UPt7gbYnt0lDOwlyL1Q3jWfr8aRa5LXzLZjfc9Dtz/vRnQ3y+3RsgHhCSLuyHl+B8dWihZaIhULlL+UayPOmTcj6jYBXPT8Y2l0Mo8M7jucDITeUeIgzrwAuZVw81dPhpVYdXofPS6J4LBPa6peLRaLNlz16y3HwbkBeDbfqTXk0X12NJUL1hS2IKuZL13XtVdSIa6NnURdPUqB4CvgSf75PAvhCUV88dWOh5c/DEvLCKr8ufrGOhTakfu+U+OrxBKni6tJ9kPBFniaj9gqIH8qUz8UixsymlAtCWatj1GiNdV32BRyPCdRGWKV+bkk8eoRqb/Z7Iqx6jqqAEKx0zGTBfPYR5Mkq0SGEL6E+jXyLquTSmUtcAJDKnBJrytthyRd3jVst8aa8qZ/KMjTl5JV855HSADEqsYFB+nVsqsKLJzdt7g8So6plO0vO0uOWsDMKhfaYFbbjTbjBzZj0KQLuo1AyuA9HCgLUb+cntFqdAKLsvrJdZWu3DTycVlYBWdZL8NQ5uR7Gafd/SpVm4KW3Btr5u2WvFUSnsNKw0/RfBfna+2p26Qr9507eeGj32iixhhmcCWqbCh5ai54xUwUFWI6hHdpDtVo63sY23K/s0YCVwwQufKeial+vv0/ol0g7+NcK8PDQfBRR1Lantz+p5N5W3eYk0Ci3YM07sVzg/IxWyNm2k/nQUOgbcI0KCg/pJtvlZwAR2Jr1sMjf6+bztUMZThN3mMGuSE8E6mxhSyyVHpA3plSjoqFpVRAjYAvgdTOF7OsEoOJslupjUInMVPXicjVxG0KIUFcbDR5Ng6Tpq43KsqtdSG55/EmcKlZoO19YePKVQqWTF32cQXnJU9ZLvrkrmIp/EAI1BIh7XK3ys4AvwmhstOExdUPZsHkDJ/RGUNlgEWsDVGk/Iga6XYHKiUSUYSteaXW1GTS6LTRrb8Jy15J44e5+AGWqgaWXBkjv5j0KqHRP6u/bC1XRD6HvhwaUVRUGvJau2jQcklZQDWmbJqma044nSLOFgqm04g2eBMr3bvi08tcKpc8tCREvfTX8fXshDaHM/G15vS6AfZRUSTZhGVrFh4Fa33O6xDcsk5uzPZG4oO0RBEj3AQDlSr0V/7bBLv2arn1/e/tvewLi/D1q2Ihf4SMYTlstJ3Pb6rHZG2ygyxMoXLDJN2MvgxU9Z4CoCi2TlAglClgfWWMTuePXWXKDB3vSWV6LT67Bsjq14QINL2bghRB8t45rUIBf+SIbZF30gqV6CyFPNw15wWNnEcd90VEZP0XHT+cE7yCKmVD8rhdqw6t31cBxQvpMy+ciTUzWMRjyHmM65Icy+Nnetb9eNprzNTPla2rmPoim8MGYuZjEtYGu9jSMjfcy92OqcfGWEX44gzxee8YFKd5XPJ0uYj5f+W0kkOFVVbxTme2A35AmnpB/fbIIlhLLxSP15+8/kMlrclTRX0OTzOp3BitAB3nwVbd8mYZ4IA0tEeB6EogcNphAf1xqalD17QmsUDq0CYBkZmcN1MxiEEgtH69SNgYg9AUV/bMZZNgucznZGpQSfF2Vf+9LVD9fS6f2GtBS7PBuIb6Vu1TNYwnDm9HjRSwm07gzuV0bigRCMmkh1DdxdHvMJrIziLtT3hoGbzRldGqkuB8xU1/FZoTkgwinpvUvI1j68TklRAeD8juJzK+MQfW43d3vDfxu56n45LsLDIsvlvKiCr7b2OeWOCyJNIghGGu6oCelCvIRMVjgbxusRvGVr7hLY8CA0jBA+qYeLe9tvd2jaKWiyUww2VY7Cw9uVKedX2HT8tFA7cIWi9Lmmu3DoV/7diBBW/PBG8iEfhNZvhQqMQeFMd3F3Hglrgz1oD8KWZB/mpdZa48gQftlEwJsmnYZKqawjotnIfYHo+BXS3mzCT94TS98W5gf1uAFWbyvMDPXsd8fRJc3lMhw+HUzXpPjl074qqxJ3gOnZD8QrBa13vUUFc5KF2cs0CczQEjLpI3SrYosNxYDcb5ScJGcPBKAtsmZK95s2IthfxjL2TQGPc3IV+9oNZBbZRYL7VaRfxulZJaePdHgZQ7TySRmd49i3JUhaS1iKeBavn9lhMGqDeO0ASieUMak/Nl0plGrEEXKIHmfIj/XS18G86umhW+OyKvJsX/+lh/HmozkPRT6TbmIt5IW0oawgstK+f0hFV9GQIpBbPKg2zD4YBBbKUxFWv2zTiRHNoQGlUVICT21WjwKSPeVwvBewjeApPS9vZgc3Ynl1etx9Ltfjrh+PTrXb0Tn2k2Fryp9K+KalorrMpIbd6J39XYcfuOVmH3uy9F/4ZUY8Tp8zWjfnBF9xps/Q5tjwAAyTlmO0+PVH7/nePXay3H1N3/Lr5XpXTuO7gs3o/fS7Rior8GNu8o/itFLyn/xbgxePoqOym59/nf9tfjhaOi3jICli1RSiQPwtGsQDwYtG6aTrdIXFENgZjwEdBb/yUfX3SWuU25UyMsoeFM5b/HCvZk0UjJKKCieEYgDC0/1JE7/NgE/eIXbu9Ubxr862Isf/K/+UvSe/k5JXO5YU3QGfZkXvxzGjOUVtLyOZnA8jau/9vl4+X/+G/H0jVux79t32hyKBep1Fv047vTi2v4gJucuiNyemfcVRHjwzaVMm1/9scUdHk1jfON2HMyWfkmUFV9RBhZd3qaeNOr4KFMBE8r51OPl069cHsedi/tsCORVeGl11zdLeb0/hjMdSGbidc5iPJ/HxedvxdN3WbQwPi0Pc3HVR8aiW4Ce7D2Iiw2AoEQbaF8kakD81vYuNsIwxmGK+m91tgPQrHQ7iz/7x4sRSOweOzMwd50YAWAjKMbFnqExADIesRE8JSPA5fJ7zdBn78mt36kUfVcbM3EWY3hDCEwFA/zAa+FLvC4nErz6U0X1b1XLuHmlnfqTQjgZrLqDOixXQ3ZuX5ZFaPa5ja1eb4wjjrSB5b1D+zKCJUYgl8JLqtiZT2QEA9GcyDB4q8qlqfYH/ASPSPFSTN6m5n2E0hWseLxTHYbAWRlt4CQjyIXAzVGKw/QCGEcaiMdxCrSNQBtDIlBg1AqLVHZf4ATgHi3rCvdWeX1QWRB6OcBYyFORerZx7M9mMZgeJ86PFMoVzycxXsxitODnbmaxN5/Fpdkizgv5vUF/ocabM7xcjje/3FIG4LFnwBj5S8BoVzqUzvzsw3ChTaaUOZZyhzoSDnjFDH0ofjhbxTnlHwrh0y2l9GMZxa1RJ440D7YMoOBrh20KOZaq/ocDbMgzwNIvGmaG2TgK1vUx0/oXbsrd5JGAqBlQkNSliHYm4gUL5yYHCh1ptg3VJ26WN4YRMqtRNCFHMTaES1Vi5845m9k/1smAn9XhvYawPZOCVL3wj0FkPCdFhkZtSHuDfgx1OtnTEXAs5HeS/Bp9uXclFCYFfCIv1Pa3pQQ4LJ8gdGhflG/77ELpLkV5QvnJAP3EZvbbAyTUvLNC2eDTO4OWu/VaCMHGUQqSQ/PYhKrjwQodUIeHQTRyxT1gTeMNa2w13dLkQAJfsBHisI1qizilS6dXcukc6YjXU0H+XB0hF3MQfbmoU9IsOTzYBCsYBAbCeq3VJwcsgL8SZSi+XkDftM15nMscX2dbrHhKSYuC6nDxh533Qsjr7FkSeJ09imcnwm85j7REDNgrEMpw+UVUv9SaPFG2wozqvLhkrRjClBdl6qac9SUeJep48IweA+1gRkFKmHSNC+rgzgBd1i8/fiQBsZ4zU7BmW5NI+ln8gijdpJP7jLNsaHD4us6Cx9SGWsclPAmIWThf8jN01PQVCJ/m2biwH6CL7rE6Psbk+jpWKVTSr6aX8CbK5S2iXBesyuWbjvnYGtcIiOfP9kBfqhCPMkThUGsyL4jizeQIF0urF8QwhiHHRYSe2lc5gHGpf5XzqNlC8pBatWYOYiSaXCOY9xbaEIoTjW2s9iM1ZXQr5S+G+VJsTIgXWy3YJymOB/OlMNWJtUa1FCIfeZM5ZZLPUPsM3oDOdxJ5Jb5GIuOVP5RujmQNtzXciYZpGUoWXX48ktf5q51dEbIoY+el2u39AGv/aXckUQ22pShYG1bMSq5VlH7iblPZuRtV1HUjRj1tuLR2E+9rA8Wsc3kGZDuPt4/4VfSqs3/hXIwOD2xozABcfn821xq/kLAVak0eCPvruYSjUDNzoPbMtIHWasKh8ofK42dzeXchs5VZyuXbGag0IT9SzY9k8LN/bu+2hDpRgFIudMgbyjBH8uljTUVCLmHz/ONISJ7zNVX5rcO+ygalDiF5rjtncrG5lVEPNd4Rv+04kHmprU46XGq+vprEq2N+HV3mrTa+8ik9c0ELQz7QBpXQm3fp3Cq5B5As+HCw0WppW/SZoeM7vdkQlGeFa/apYr7OTZauWeWXL0opvC9wfftIVteLufKpDs2mQ1mjjUO76hj14+BNj8XycD+mo4HfBL5QG98LVxV/ZVz0ubfhGSQROe1Y5uUf6Qz9gCVLSVlOCLlvgVdZaHaJPXyC6qYRb2PJs8uHT64znI54i5W8xb1l5CfipYadsYxrFGsxMpdAZpINl7enmgidvQPxqfkvZeOR2UNMZS/wwivu9vFq8gy8nHOqfYg9NWholLUByeSs0Jn+2Y+vWTNDLrgnxVTX6CdkxSgbNK/9pqm0TRApKVA+M2ouYXETacRvGcuKj8XkV84N48q/9xPx2B/9mI5N+7EnhaJM1jXNf8NKs5w1bqDBx3Qer/6zX4nP/o9/Pd4xOozRnSMdz2a+EYL1+46G+uQhVI6wWJU51YcXKfhynDxcKeZDFJfvqMJSp4R8MJ6MKhR6Q1rGzEphDwl/FVS5ObKVwNCOnwAUy8/FbDmPuyMdo4eduK39w1wTBmd+Tv0caFJdlDEN5gspH650nJVX4v4DnC1lLDN+zENC6XuJA7Jeg23DKJ67fRzcBUTRmfzHP7bmjp6NgIpFYjYCCSONgAxyMYIMqxHMZQS4LFwhj69juuyGX9gfx/yHfyje+ZM/GbNzl2LYZ7lhRruKm/upH9zvYOBr7Z1rt+L27341fvPn/2GsX7oW6zu31EW5kKU+4Inp3McfigcbJ6F5gx0RFnAMHOok4JSqUG2pSiuMnSwC1bVrzSoC1SaCwhVW2iaSZA1VxmSV7gyOtzOAVhJj5wdH1+N+XHzv2+PKD38orrz7HdE7PId7ismXvh7P/frn4+b/+1vx+HFHR04dR6X8npZE5iYeYCXPwWYw9QkjFQGNxMzVNN1vjPf+RvAfyAjUzm/2JJfNkiIIASJVsNUI6u6aNHX8Q09KsAb22MIKFnLxV1X3+jNvjff+9J+PzjPPRGeog7IY9J+UCqupO3IywR1hfkkUA5hdvap9hTaVuAKOYqLH3TlZgwZUBwejoP8zLbQnrOMp/OYl45wZWU8geu12G2jF2UWeybVW2qeASC5iFp1xL85dvhSxN4yBlj//1oEUHYNxrI+ncefzX41v/b1f8vuPH7818ZVO7bf9k8Fs+vbkcfEC7HP8OL5BY8UAGrbrqJgsDwDpQkbw8TW/6ePXutLWM4AA5SDsnHGUYRCaz86zsSgP186Oms0QivTP1qv4rujduHQ53vxTPxkHP/DhiPMX1KEEVbwNusEjAAyFXqeOaP3Tcco7ei0Xfpu3lykx63WkpB0tBGgMkiQP2rvjV34xCwOxLhuDxq22YVPPBlCn//3glJnWhiNOStNF7MvlL775Ulz77S/Gqy++HIPHzsWTH3hvjN/8hPgcxvyL34ov//Wfi0tffykO7059PWLe72rD3ItDTTQ83bwv2aRAzN+m+w2vnixVRqcBRjD9qY0RGBCK2tkI2Pg5oXyIKa9XZ6FkgxH4YRL51a7cL+vYxD/+izWs43p/Lzo/9IPxlp/6ZMSbnpS1y6QrtzQmIKk89H+spQF5D92nctjNq4TN2UB7gYFmQYfNIa6rUVR6lfZgMa5J7iIKaKCuv2lDbKQusDHDpnmBTesHAV1X8Z0GjGugY2tHs/vGr3w2Xvj5X4rzt2ZaRldxtNeNF3XsfPMPfDDe8YmPUTte/ewX40t/7e/EW27P4lB1/OMdHFeFjHjZlfeoPNoI2gwgTY3RRvAADyUj0P8JkJrJuKCSb5aGnXJfIAKlLGwT18sauC9erv7OF+Pml75it3cSVPVwLt7DC6heX0fCnt2wiEBWFbiv3xVRdSH65cxvFN0GVV8IrXPC8y08J9q82TxxHQfCPhYAYlQ1npcfhaJXQwZzH4Q/XqV/P+wL42gW1z/3xfjCz/9inDtaxAUtfeeP5/HUcTfeNR3G9DNfjK9++l/G6tJBHL7/nbH8wNvj7j57Ka0e8locVzFwno5qgHFrfNuARM8OXR/p2DRpp8rmizOr9uxSGvuBYknC9JpcQJEVFuSY700ZwpAg6Xpv0de5mIu5I/9S6MWj43jpH/1SrK++EuvZLI6Pj2OiGT91W7WQx2BTCjGExWVakMfD+up/LD72hOgpHbqEym8crjUrhLhIo3jObWzF9l/Jw5CM2h0IGXe340NjC/MCzwbZSZT2QpbDipt8GYGG0ka/Al/o9vSlOvP1LL76q78WT91exGUZQPTU34EkNZ3EBc34S1otXvzMF2Jx4270rlyMd3/kw7HU8sH8Z18wH8hTdqeShdqJoHf9lQPPeMW9cZS3EBqwoBbW7yK0Mbf+/CuBEcjr2P0mUVivWNIoDk+gEM+gphKVNikcE2VI/LZAR54KBXEV7IL0O/zac3Hzn/96dK5e93v8n7/9ahxLATYgNhAiwlLCEzpc5MmdMCxoeFr/vQVQPsuA81MCRlipWFklzpl7C0WkjSuh2zXj2yB5iWkC3lQWrG9Wa55PKHgPMPMtMtXFxvUxuXojxjeO4oljeT3NgoFkgdy4uzmWzPiNhXPXj+Poy9+MzkgT6B1v8wUmLp3n+FLGouguEjZ8u5L0tjFNAA21sFXdKGDuZUyQ8dpYKdptATU29RMgzP6hVFbYk/IZ2FK73a4s/qL2C8/93D+Ia5/5bHRlAJfO7cfcPwCg+u6y61vFPEI61wCNGvBJuPBmiB3d/ZA6ZwFbVwnbSF5FKUBDeyCqZhtTki1ZSW/dYyn81rHlw2VxvKq9rq+aSrKqc5HJc1sugZOLjpM3lhPplSuOmky+kCT6uyp4naARV00kZUSQyq8KT2wuEvHZigNtAwDX5SLQXncgd64zu4zhrdrcPPe///145dP/Is6/ekuDVT08iNycvL3i2C7bHq0sQsRvXgpWlRjV9oEoYT0Y5daN+fzEBmt+xZPabqP2q9tIXlOusWmGHpw7jPX5gzgad2O2P4xZv6/llwtAPV9OvjvUhnB5HOOnr/D4csxv347hAGlIOohYdLAAkXykkM8TCAnbcZRY84woyXmpmpqfLkj/EnwF6noToTMuP0rJ7Z6RbP5Nt4/ihZ/9hbj5D/9J9F+8Eb255r5Gx9h4KHPI2q+zHdjzes9OeBMHWWbygb37Iaby6ABv/yDchVwCMs7KwArbvXw+zn/gO+O6jOCoryUK1y2j42EbDOD2KGL83c9E98qBPMEivvEbX4g3dcYyJq4JiFDBE7p7XdD7r9//rr/M41D8Mjl6ZCvkhzjFHGnrVgr1+q18b0bMkaBwlnfiSGde5uqTchNF0SspWScGubSrv/3luPnsN+Nw/1z0D/ZjqQ0jaz8bRe6acU1oqg9Wv5RgXXe5ciis4X1wJmbYczYLhJpnWY2fjHPx215YjMpv4i2a7Xz2LxhzRV+NFFa6xCfzaTx25UrcefGVuPnSKzEajGI2W+jM34sXxPHi6cfi6X//34n1kwexeOV6vPi//V9x5YWjGMETJwLRaWSBrJ0sOinYBjwtsFunjS5f/pk/oSOBjEBux8zKOrtcldIocNj+o8OkZ5eNznFP5kOF+UUUEYVPzWbFkIrKcz11NRGYsyHTwKeq86qOO3f2xnH4Pe+LC3/sh+PSO98S89Ghjm1D8aJ6WiNZKzscwaBbkDUCZW5B6WMDtfIZAEPdIXcvnJHWfQAKWiViyM3V567HK5/5fHzzc7+t5VLGLgM61Pjf+m/9QAyeuhSL+XF85Wd/MVZ/95/Ge+70YjFc+xdaeSyP6wUYWB1eW5m7oF2Zwy2F79SFjIzgT647csudAb+LCKMYQd76TBefRkC8egA8BWDvgHUo4pOCsjlaYgSa0zIoMqiYbfj937ni4/F+TCbLONJsv3swjlcvjOP4ifPx+Hd+VzzxlrfF+MnHJS2OOao81KahdGM6WIF3Bhs48RrEPUag9FZWEcauESCkdj3T2aV1RmjTVWKtGT/YP4i+cD2bxGqidX8yicFIS92FQ22GNHFuH8c3//Gn46u/8E/iw69249wdHavH/JZieTJKcuTiLPsNU20peBfObgQ/ISPgixV9GYHKUVyP9w+ps7rOE1YjsBfgD927WMcWkWILgDx5wocaTFk8gW1EBbP5KvZ6I9Hl0NWJic66x6rFT8V3tEHiXHtH3uOu8ibyLLE3iIGWipnWRqg1GzCWKXaSzk3wjSWPJvmFkXwIdVPHHm3LWGr5pg7AsrQN0NxtV6H0pzy/v6gFyGhTnml+AHN9+WJc+UMfjif+7X+DL0hpM6SxcMFFy8LxN74V3/iFX47pr30hnhyM49yrx9GXbO52J5KPNpYzUZGMeLiEB38Y7qMxgj/z4+uOGIAZLrSiTO9msYiiyC0jEF1KGiNQgrSFrDR7CpYCt8UqlAcNnl7qT1faANJ27Wf8uCmCAnlYY6QByhR1WtCyJIHO1RHPIXBXj8HaeOhPRpA/R2/CBhsrfREXIiiWtZpH3eSvNABctjnEuZ0SPP9Q0wniXvmZbuVWgysE8H8VXFKFXQP1N57347bSNy4N45VzEc987/uix+8tyitc+/q3tE/6VrxzMYzDW1Mvg2PRmC/nMR9zQUztpRNkyV3aza1kuhLRpvuavyk3L015O561OotPfiKNgEeo7dbL8QojkgKsVCqjD0J2QQCTwxSUK6XRjmOQ5WwlKR+kHllYjcBByWNANEBp/i5AYzwiojQbIMuaWU1IXcSNl+JPoUoEpZ6QpgjcHsnponxV3JoFyuLqodsV8oZSx45E4OWHcTkt+TiX3To0NzMsTWdDp15AynYJ3YU2vUpj/MeaDTyHMZOx432Gkr/8pJ9UHgqBIqYNDbwNfRKthYB4Kd0JKgeqUK4a0n7D1yZegameoNACaYFnskOrq7hYgDDjNQdSpFKRSatNj1vQnsktMJVSv6S2Yj6S2gOof/o2KhOlMkYq23gUF/1E4gVbtLbya1k7bOe3sV12UnlFlQHEa7iLHHhHQi3xfnT9vPZdb+qN43IM4oKOGjw9xE/+v9Eg29IsZCYS1rgQpcG4ha24J5P5o5wyBJ4z19+ObfFezCE/m3aks23GswzItu6tBTUtO+V8tQXZ3jP8xHa7eacDFAobzYyrtl7zzwK1bQXTrXRqmULuJ7Ce8wyln2Wc8YupyxhOFjGYaIPub1+9sbAr3Zb4FCsux0uBJINn8OzkrxlhBs61MYiksM7KpJjxms44+aW+jSPL0l9lG7thKxqXrk/lJxInv20ISSfjDw/uUrBrADW8HzRtC7pNpdMKvULxgAxTT/6bJaSjTSG/6Yzj7iuP/DcaujxyhZLZSFoxwnZYMdM02c3XP+s3bppQSnGafJeV8pLmI8NKo/QrBWadWjcVbu+kTSVr72ZNJ9wYAJvrfMGWkNut9Gk6lKtGabuL+tjCZh33p1k0AlnlBBoFECFQ20Cjtq15XPDhu4p+/kaziZtmrqMQZ5fz4d4+2ng/eJi6FajH4/MbLoUWenLmSoVLRylt8gVOebQ13CiYMOOZdjlQ6GXbQo9yygwlVuvbOEo9I5ICNunsK5Ve42eCNllAYW2JR9il8lqEDI2KvsIo9tkc+jgOYhC+a5rG4aHuwMP091pALIk4PaMIsDEKipWuf+aOUJ/Uo7iUua5nn+Ju39qs6S9dvmINDdqUdq6nD83iWt7Gqs+6DGQj2rawnX4IgFKDraZ1SXgYaHdf4226FosU3TwqLtSIjDwYw1VAY6n/RoKmUYnBjKRsxpF2w2tbedRLLpt88hghIEUmgVLfbeqoNjScQ1XiJSTXgSHrOg+eRKPObhtaQ7NCrQ+cVH4yVFK1+qb/VllJnxXatNpxojw3yfme70uC9W4n+yyfgLIVTd5Q4ORpRTR9W9gIfZudNIBkGOXmsDaQLps2WTGfWCKeaOW7bdk0lvauUsJ62tilnTT0KYElH7SGTrsuYRsfDJUnoARWXMOrM5mpjCr/NjW3YbuNwgwMlSMe7Qfbt7v5wk6GeExGdTqYfglPA/hPLCZFvJV/EnSWP/6JdZcHGPjrcjFDAtb51ZeNNcVBqPjCjKh4fTJFMsFcs5t1uNbTnzecVCFOsevVthtaDCq9EFwWWrSFihUtMC0q5gubTA/P4+w6umzvWLk4dT/I/s1KIyBfoCIs6GzlZaTymP22wd/ZKODScmGnYc3ARaZtvupanwam9P2sQFB5au8RnFfS7aWs3XfluN0OQLz2BFQRuwrA2oAclVJreyQbuCd/ZwQ2WVGxxijT7CVf7Qhd21Xog1SlR7ihXWeA4yDtk0lBrVuw4amGp0OlYfoVla6kTcEkPUVKfi3dAPUqrQagtYUbGiehaiRm4lQwTy2o1TGtagCIwEi84P2gaC1bmEkrTPESJkC99LAV1jhQ4laCsHLSqudP5WWOPom7TkIKq+a1yzJ0mWOPBiDfYEm3oeY/CE5qW4ZnMJ1W+lFB5c10W309LMgIWq0KtXQIhC3qp0Kt08ZdUN6J3LXbVGxDKn0r97WM8oxgZWb0nvAsUNs/TJvXC4+irzQCBFsV7lEQVvIl31AMROWJpZrrlxCoYaUtsLNXnBTrvNd6txHKl7FUeuYXzHjmZ3kt0786beNrhdq9MUkbWl2dGU6jVeM1/agAulW8TR/kEQoR21mhGIH+jQi1hKJidN4mv7ky1yD51Sha7R3W/FQqPDoUwnG7D19tLOkcEXsJ0qV/8kvdXcwGDwZvBFtY2GiECOyuq2Z6B3bpgNwSNz+qT1of2V7Q0DoBNmPYtNuFdj9NHaE3sU1atFS3jqPy8UCMiP8PoTGV97Kn4pQAAAAASUVORK5CYII=;" parent="1" vertex="1">
          <mxGeometry x="920" y="-316" width="68.94" height="70" as="geometry" />
        </mxCell>
        <mxCell id="aw8GpI5t2HlLWU1pFF8d-6" value="" style="sketch=0;points=[[0.015,0.015,0],[0.985,0.015,0],[0.985,0.985,0],[0.015,0.985,0],[0.25,0,0],[0.5,0,0],[0.75,0,0],[1,0.25,0],[1,0.5,0],[1,0.75,0],[0.75,1,0],[0.5,1,0],[0.25,1,0],[0,0.75,0],[0,0.5,0],[0,0.25,0]];verticalLabelPosition=bottom;html=1;verticalAlign=top;aspect=fixed;align=center;pointerEvents=1;shape=mxgraph.cisco19.dns_server;fillColor=#005073;strokeColor=none;overflow=visible;" parent="1" vertex="1">
          <mxGeometry x="441.23" y="-730" width="49.5" height="90" as="geometry" />
        </mxCell>
        <mxCell id="aw8GpI5t2HlLWU1pFF8d-7" value="" style="sketch=0;points=[[0.015,0.015,0],[0.985,0.015,0],[0.985,0.985,0],[0.015,0.985,0],[0.25,0,0],[0.5,0,0],[0.75,0,0],[1,0.25,0],[1,0.5,0],[1,0.75,0],[0.75,1,0],[0.5,1,0],[0.25,1,0],[0,0.75,0],[0,0.5,0],[0,0.25,0]];verticalLabelPosition=bottom;html=1;verticalAlign=top;aspect=fixed;align=center;pointerEvents=1;shape=mxgraph.cisco19.dns_server;fillColor=#005073;strokeColor=none;" parent="1" vertex="1">
          <mxGeometry x="441.23" y="-610" width="49.5" height="90" as="geometry" />
        </mxCell>
        <mxCell id="c3c3Aq1LhFa4HHN2FVEI-41" style="edgeStyle=orthogonalEdgeStyle;rounded=0;orthogonalLoop=1;jettySize=auto;html=1;exitX=0.35;exitY=0;exitDx=0;exitDy=0;exitPerimeter=0;" parent="1" source="c3c3Aq1LhFa4HHN2FVEI-2" edge="1">
          <mxGeometry relative="1" as="geometry">
            <mxPoint x="125.16666666666674" y="-520" as="targetPoint" />
          </mxGeometry>
        </mxCell>
        <mxCell id="c3c3Aq1LhFa4HHN2FVEI-60" style="edgeStyle=orthogonalEdgeStyle;rounded=0;orthogonalLoop=1;jettySize=auto;html=1;" parent="1" source="c3c3Aq1LhFa4HHN2FVEI-2" target="c3c3Aq1LhFa4HHN2FVEI-44" edge="1">
          <mxGeometry relative="1" as="geometry">
            <Array as="points">
              <mxPoint x="160" y="-284" />
            </Array>
          </mxGeometry>
        </mxCell>
        <mxCell id="c3c3Aq1LhFa4HHN2FVEI-2" value="" style="points=[[0.35,0,0],[0.98,0.51,0],[1,0.71,0],[0.67,1,0],[0,0.795,0],[0,0.65,0]];verticalLabelPosition=bottom;sketch=0;html=1;verticalAlign=top;aspect=fixed;align=center;pointerEvents=1;shape=mxgraph.cisco19.user;fillColor=#005073;strokeColor=none;" parent="1" vertex="1">
          <mxGeometry x="90" y="-400" width="100" height="100" as="geometry" />
        </mxCell>
        <mxCell id="c3c3Aq1LhFa4HHN2FVEI-4" value="&lt;font style=&quot;font-size: 14px;&quot;&gt;Root Name Server&lt;/font&gt;" style="text;html=1;strokeColor=none;fillColor=none;align=center;verticalAlign=middle;whiteSpace=wrap;rounded=0;" parent="1" vertex="1">
          <mxGeometry x="498.32" y="-700" width="130" height="30" as="geometry" />
        </mxCell>
        <mxCell id="c3c3Aq1LhFa4HHN2FVEI-5" value="&lt;font style=&quot;font-size: 14px;&quot;&gt;Name Server for&lt;br&gt;.link TLD&lt;/font&gt;" style="text;html=1;strokeColor=none;fillColor=none;align=center;verticalAlign=middle;whiteSpace=wrap;rounded=0;" parent="1" vertex="1">
          <mxGeometry x="490.31" y="-590" width="145" height="35" as="geometry" />
        </mxCell>
        <mxCell id="c3c3Aq1LhFa4HHN2FVEI-6" value="&lt;font style=&quot;font-size: 14px;&quot;&gt;Amazon Route 53&lt;br&gt;disite.link Name Server&lt;/font&gt;" style="text;html=1;strokeColor=none;fillColor=none;align=center;verticalAlign=middle;whiteSpace=wrap;rounded=0;" parent="1" vertex="1">
          <mxGeometry x="396.13" y="-390" width="153.87" height="40" as="geometry" />
        </mxCell>
        <mxCell id="c3c3Aq1LhFa4HHN2FVEI-8" value="" style="image;aspect=fixed;html=1;points=[];align=center;fontSize=12;image=img/lib/azure2/networking/DNS_Private_Resolver.svg;" parent="1" vertex="1">
          <mxGeometry x="90" y="-600" width="79.33" height="70" as="geometry" />
        </mxCell>
        <mxCell id="c3c3Aq1LhFa4HHN2FVEI-12" value="" style="endArrow=classic;html=1;rounded=0;" parent="1" edge="1">
          <mxGeometry width="50" height="50" relative="1" as="geometry">
            <mxPoint x="169.64" y="-610" as="sourcePoint" />
            <mxPoint x="420.31" y="-710" as="targetPoint" />
          </mxGeometry>
        </mxCell>
        <mxCell id="c3c3Aq1LhFa4HHN2FVEI-13" value="" style="endArrow=none;html=1;rounded=0;startArrow=classic;startFill=1;endFill=0;" parent="1" edge="1">
          <mxGeometry width="50" height="50" relative="1" as="geometry">
            <mxPoint x="169.64" y="-600" as="sourcePoint" />
            <mxPoint x="420.31" y="-700" as="targetPoint" />
          </mxGeometry>
        </mxCell>
        <mxCell id="c3c3Aq1LhFa4HHN2FVEI-17" value="&lt;font style=&quot;font-size: 14px;&quot;&gt;1: query&lt;/font&gt;" style="text;html=1;strokeColor=none;fillColor=none;align=center;verticalAlign=middle;whiteSpace=wrap;rounded=0;rotation=-90;" parent="1" vertex="1">
          <mxGeometry x="70" y="-475" width="70" height="30" as="geometry" />
        </mxCell>
        <mxCell id="c3c3Aq1LhFa4HHN2FVEI-18" value="&lt;font style=&quot;font-size: 14px;&quot;&gt;2: query&lt;/font&gt;" style="text;html=1;strokeColor=none;fillColor=none;align=center;verticalAlign=middle;whiteSpace=wrap;rounded=0;rotation=-22;" parent="1" vertex="1">
          <mxGeometry x="245.67000000000002" y="-690" width="70" height="30" as="geometry" />
        </mxCell>
        <mxCell id="c3c3Aq1LhFa4HHN2FVEI-19" value="" style="endArrow=classic;html=1;rounded=0;" parent="1" edge="1">
          <mxGeometry width="50" height="50" relative="1" as="geometry">
            <mxPoint x="178.85" y="-580" as="sourcePoint" />
            <mxPoint x="411.16" y="-580" as="targetPoint" />
          </mxGeometry>
        </mxCell>
        <mxCell id="c3c3Aq1LhFa4HHN2FVEI-20" value="" style="endArrow=none;html=1;rounded=0;startArrow=classic;startFill=1;endFill=0;" parent="1" edge="1">
          <mxGeometry width="50" height="50" relative="1" as="geometry">
            <mxPoint x="178.13" y="-570" as="sourcePoint" />
            <mxPoint x="411.88" y="-570" as="targetPoint" />
          </mxGeometry>
        </mxCell>
        <mxCell id="c3c3Aq1LhFa4HHN2FVEI-21" value="&lt;font style=&quot;font-size: 14px;&quot;&gt;3: link.&lt;/font&gt;" style="text;html=1;strokeColor=none;fillColor=none;align=center;verticalAlign=middle;whiteSpace=wrap;rounded=0;rotation=-22;" parent="1" vertex="1">
          <mxGeometry x="260" y="-650" width="70" height="30" as="geometry" />
        </mxCell>
        <mxCell id="c3c3Aq1LhFa4HHN2FVEI-22" value="&lt;font style=&quot;font-size: 14px;&quot;&gt;4: query&lt;/font&gt;" style="text;html=1;strokeColor=none;fillColor=none;align=center;verticalAlign=middle;whiteSpace=wrap;rounded=0;rotation=0;" parent="1" vertex="1">
          <mxGeometry x="275.67" y="-610" width="70" height="30" as="geometry" />
        </mxCell>
        <mxCell id="c3c3Aq1LhFa4HHN2FVEI-23" value="&lt;font style=&quot;font-size: 14px;&quot;&gt;5: disite.link.&lt;/font&gt;" style="text;html=1;strokeColor=none;fillColor=none;align=center;verticalAlign=middle;whiteSpace=wrap;rounded=0;rotation=0;" parent="1" vertex="1">
          <mxGeometry x="260" y="-573.5" width="100" height="30" as="geometry" />
        </mxCell>
        <mxCell id="c3c3Aq1LhFa4HHN2FVEI-25" value="" style="endArrow=classic;html=1;rounded=0;" parent="1" edge="1">
          <mxGeometry width="50" height="50" relative="1" as="geometry">
            <mxPoint x="180" y="-530" as="sourcePoint" />
            <mxPoint x="410" y="-440" as="targetPoint" />
          </mxGeometry>
        </mxCell>
        <mxCell id="c3c3Aq1LhFa4HHN2FVEI-26" value="" style="endArrow=none;html=1;rounded=0;startArrow=classic;startFill=1;endFill=0;" parent="1" edge="1">
          <mxGeometry width="50" height="50" relative="1" as="geometry">
            <mxPoint x="180" y="-520" as="sourcePoint" />
            <mxPoint x="400" y="-430" as="targetPoint" />
          </mxGeometry>
        </mxCell>
        <mxCell id="c3c3Aq1LhFa4HHN2FVEI-27" value="&lt;font style=&quot;font-size: 14px;&quot;&gt;6: query&lt;/font&gt;" style="text;html=1;strokeColor=none;fillColor=none;align=center;verticalAlign=middle;whiteSpace=wrap;rounded=0;rotation=20;" parent="1" vertex="1">
          <mxGeometry x="280" y="-510" width="70" height="30" as="geometry" />
        </mxCell>
        <mxCell id="c3c3Aq1LhFa4HHN2FVEI-32" value="&lt;font style=&quot;font-size: 14px;&quot;&gt;7: dev.disite.link.&lt;/font&gt;" style="text;html=1;strokeColor=none;fillColor=none;align=center;verticalAlign=middle;whiteSpace=wrap;rounded=0;rotation=23;" parent="1" vertex="1">
          <mxGeometry x="240" y="-480" width="130" height="40" as="geometry" />
        </mxCell>
        <mxCell id="c3c3Aq1LhFa4HHN2FVEI-34" value="ACM&lt;br&gt;dev.disite.link" style="text;html=1;strokeColor=none;fillColor=none;align=center;verticalAlign=middle;whiteSpace=wrap;rounded=0;" parent="1" vertex="1">
          <mxGeometry x="667.5" y="-50" width="75" height="40" as="geometry" />
        </mxCell>
        <mxCell id="c3c3Aq1LhFa4HHN2FVEI-58" style="edgeStyle=orthogonalEdgeStyle;rounded=0;orthogonalLoop=1;jettySize=auto;html=1;exitX=0.5;exitY=1;exitDx=0;exitDy=0;" parent="1" source="c3c3Aq1LhFa4HHN2FVEI-35" edge="1">
          <mxGeometry relative="1" as="geometry">
            <mxPoint x="705" y="-130" as="targetPoint" />
            <Array as="points">
              <mxPoint x="705" y="-170" />
              <mxPoint x="705" y="-170" />
            </Array>
          </mxGeometry>
        </mxCell>
        <mxCell id="c3c3Aq1LhFa4HHN2FVEI-35" value="CloudFront&lt;br&gt;d371woi57nd173.cloudfront.net" style="text;html=1;strokeColor=none;fillColor=none;align=center;verticalAlign=middle;whiteSpace=wrap;rounded=0;" parent="1" vertex="1">
          <mxGeometry x="610" y="-245.99999999999997" width="190" height="40" as="geometry" />
        </mxCell>
        <mxCell id="c3c3Aq1LhFa4HHN2FVEI-36" value="jiangren.com.au" style="text;html=1;strokeColor=none;fillColor=none;align=center;verticalAlign=middle;whiteSpace=wrap;rounded=0;" parent="1" vertex="1">
          <mxGeometry x="895" y="-241.00000000000003" width="118.94" height="22.75" as="geometry" />
        </mxCell>
        <mxCell id="c3c3Aq1LhFa4HHN2FVEI-44" value="" style="sketch=0;outlineConnect=0;fontColor=#232F3E;gradientColor=none;fillColor=#4D27AA;strokeColor=none;dashed=0;verticalLabelPosition=bottom;verticalAlign=top;align=center;html=1;fontSize=12;fontStyle=0;aspect=fixed;pointerEvents=1;shape=mxgraph.aws4.hosted_zone;" parent="1" vertex="1">
          <mxGeometry x="434" y="-323" width="78" height="77" as="geometry" />
        </mxCell>
        <mxCell id="c3c3Aq1LhFa4HHN2FVEI-45" value="" style="endArrow=classic;html=1;rounded=0;" parent="1" edge="1">
          <mxGeometry width="50" height="50" relative="1" as="geometry">
            <mxPoint x="170" y="-500" as="sourcePoint" />
            <mxPoint x="420" y="-300" as="targetPoint" />
          </mxGeometry>
        </mxCell>
        <mxCell id="c3c3Aq1LhFa4HHN2FVEI-46" value="" style="endArrow=none;html=1;rounded=0;startArrow=classic;startFill=1;endFill=0;" parent="1" edge="1">
          <mxGeometry width="50" height="50" relative="1" as="geometry">
            <mxPoint x="169.33" y="-490" as="sourcePoint" />
            <mxPoint x="410" y="-295" as="targetPoint" />
          </mxGeometry>
        </mxCell>
        <mxCell id="c3c3Aq1LhFa4HHN2FVEI-47" value="&lt;font style=&quot;font-size: 14px;&quot;&gt;8: query&lt;/font&gt;" style="text;html=1;strokeColor=none;fillColor=none;align=center;verticalAlign=middle;whiteSpace=wrap;rounded=0;rotation=39;" parent="1" vertex="1">
          <mxGeometry x="282" y="-414" width="70" height="30" as="geometry" />
        </mxCell>
        <mxCell id="c3c3Aq1LhFa4HHN2FVEI-48" value="&lt;font style=&quot;font-size: 14px;&quot;&gt;9: xxx.dev.disite.link.&lt;/font&gt;" style="text;html=1;strokeColor=none;fillColor=none;align=center;verticalAlign=middle;whiteSpace=wrap;rounded=0;rotation=39;" parent="1" vertex="1">
          <mxGeometry x="225" y="-390" width="160" height="40" as="geometry" />
        </mxCell>
        <mxCell id="c3c3Aq1LhFa4HHN2FVEI-50" value="" style="endArrow=classic;html=1;rounded=0;entryX=0.5;entryY=0;entryDx=0;entryDy=0;entryPerimeter=0;" parent="1" target="c3c3Aq1LhFa4HHN2FVEI-2" edge="1">
          <mxGeometry width="50" height="50" relative="1" as="geometry">
            <mxPoint x="139.85000000000002" y="-520" as="sourcePoint" />
            <mxPoint x="139.77" y="-421" as="targetPoint" />
            <Array as="points">
              <mxPoint x="139.77" y="-471" />
            </Array>
          </mxGeometry>
        </mxCell>
        <mxCell id="c3c3Aq1LhFa4HHN2FVEI-53" value="" style="endArrow=classic;html=1;rounded=0;" parent="1" edge="1">
          <mxGeometry width="50" height="50" relative="1" as="geometry">
            <mxPoint x="525.31" y="-281.34000000000003" as="sourcePoint" />
            <mxPoint x="660" y="-281" as="targetPoint" />
          </mxGeometry>
        </mxCell>
        <mxCell id="c3c3Aq1LhFa4HHN2FVEI-54" value="dev.disite.link&lt;br&gt;Hosted Zone" style="text;html=1;strokeColor=none;fillColor=none;align=center;verticalAlign=middle;whiteSpace=wrap;rounded=0;" parent="1" vertex="1">
          <mxGeometry x="423.07" y="-241" width="100" height="30" as="geometry" />
        </mxCell>
        <mxCell id="c3c3Aq1LhFa4HHN2FVEI-56" value="10: xxx.dev.disite.link" style="text;html=1;strokeColor=none;fillColor=none;align=center;verticalAlign=middle;whiteSpace=wrap;rounded=0;rotation=-90;" parent="1" vertex="1">
          <mxGeometry x="90" y="-480" width="130" height="30" as="geometry" />
        </mxCell>
      </root>
    </mxGraphModel>
  </diagram>
</mxfile>
